<svg xmlns="http://www.w3.org/2000/svg" xmlns:xlink="http://www.w3.org/1999/xlink" version="1.1" x="0px" y="0px" viewBox="0 0 100 125" style="enable-background:new 0 0 100 100;" xml:space="preserve"><style type="text/css">
	.st0{fill:none;stroke:#000000;stroke-width:2;stroke-linecap:round;stroke-linejoin:round;stroke-miterlimit:10;}
	.st1{stroke:#000000;stroke-width:2;stroke-linecap:round;stroke-linejoin:round;stroke-miterlimit:10;}
	.st2{fill:none;stroke:#000000;stroke-width:1.8;stroke-linecap:round;stroke-linejoin:round;stroke-miterlimit:10;}
</style><path d="M11.7,12.9v73c0,0.6,0.4,1,1,1h75c0.6,0,1-0.4,1-1v-73c0-0.6-0.4-1-1-1h-75C12.2,11.9,11.7,12.4,11.7,12.9z M13.7,50.4h73  v34.5h-73V50.4z M13.7,13.9h73v34.5h-73V13.9z"/><path d="M83.1,44.3v-26c0-0.6-0.4-1-1-1H18.3c-0.6,0-1,0.4-1,1v26c0,0.6,0.4,1,1,1h63.7C82.6,45.3,83.1,44.8,83.1,44.3z M81.1,43.3  H19.3v-24h61.7V43.3z"/><path d="M75.6,32.6c0.4-0.4,1-0.4,1.4,0c0.4,0.4,0.4,1,0,1.4l-4.9,5c-0.2,0.2-0.5,0.3-0.7,0.3c-0.3,0-0.5-0.1-0.7-0.3  c-0.4-0.4-0.4-1,0-1.4L75.6,32.6z"/><path d="M72.6,29.6c0.4-0.4,1-0.4,1.4,0s0.4,1,0,1.4l-7.8,7.8c-0.2,0.2-0.5,0.3-0.7,0.3S65,39,64.8,38.8c-0.4-0.4-0.4-1,0-1.4  L72.6,29.6z"/><path d="M83.1,64.9v-9.5c0-0.6-0.4-1-1-1H64.6c-0.6,0-1,0.4-1,1v9.5c0,0.6,0.4,1,1,1h17.5C82.6,65.9,83.1,65.5,83.1,64.9z   M81.1,63.9H65.6v-7.5h15.5V63.9z"/><path d="M83.1,79.3v-9.5c0-0.6-0.4-1-1-1H64.6c-0.6,0-1,0.4-1,1v9.5c0,0.6,0.4,1,1,1h17.5C82.6,80.3,83.1,79.9,83.1,79.3z   M81.1,78.3H65.6v-7.5h15.5V78.3z"/><path d="M60,64.9v-9.5c0-0.6-0.4-1-1-1H41.5c-0.6,0-1,0.4-1,1v9.5c0,0.6,0.4,1,1,1H59C59.5,65.9,60,65.5,60,64.9z M58,63.9H42.5  v-7.5H58V63.9z"/><path d="M60,79.3v-9.5c0-0.6-0.4-1-1-1H41.5c-0.6,0-1,0.4-1,1v9.5c0,0.6,0.4,1,1,1H59C59.5,80.3,60,79.9,60,79.3z M58,78.3H42.5  v-7.5H58V78.3z"/><path d="M36.9,64.9v-9.5c0-0.6-0.4-1-1-1H18.3c-0.6,0-1,0.4-1,1v9.5c0,0.6,0.4,1,1,1h17.5C36.4,65.9,36.9,65.5,36.9,64.9z   M34.9,63.9H19.3v-7.5h15.5V63.9z"/><path d="M36.9,79.3v-9.5c0-0.6-0.4-1-1-1H18.3c-0.6,0-1,0.4-1,1v9.5c0,0.6,0.4,1,1,1h17.5C36.4,80.3,36.9,79.9,36.9,79.3z   M34.9,78.3H19.3v-7.5h15.5V78.3z"/></svg>
