<svg xmlns="http://www.w3.org/2000/svg" xmlns:xlink="http://www.w3.org/1999/xlink" xml:space="preserve" version="1.1" style="shape-rendering:geometricPrecision;text-rendering:geometricPrecision;image-rendering:optimizeQuality;" viewBox="0 0 333 416.25" x="0px" y="0px" fill-rule="evenodd" clip-rule="evenodd"><defs><style type="text/css">

    .fil0 {fill:none}
    .fil1 {fill:black;fill-rule:nonzero}

  </style></defs><g><rect class="fil0" width="333" height="333"/><path class="fil1" d="M225 151c-30,-14 -61,-21 -90,-25 0,0 0,-1 0,-1 10,-24 35,-37 60,-31 17,4 33,9 50,15 -8,10 -17,23 -20,42z"/><path class="fil1" d="M69 204l-58 -66c0,0 108,-27 203,14 96,40 108,75 108,75 0,0 -119,-35 -253,-23z"/><path class="fil1" d="M69 204l-20 -22c46,-8 185,-16 273,45 0,0 -119,-35 -253,-23z"/><path class="fil1" d="M77 214c141,-7 220,15 246,27l0 0c-44,-8 -116,-10 -192,-6 -21,2 -41,-6 -55,-21l1 0z"/></g></svg>
