<svg xmlns="http://www.w3.org/2000/svg" xmlns:xlink="http://www.w3.org/1999/xlink" version="1.1" x="0px" y="0px" viewBox="0 0 100 125" style="enable-background:new 0 0 100 100;" xml:space="preserve"><style type="text/css">
	.st0{fill:none;stroke:#000000;stroke-width:2;stroke-linecap:round;stroke-linejoin:round;stroke-miterlimit:10;}
	.st1{stroke:#000000;stroke-width:2;stroke-linecap:round;stroke-linejoin:round;stroke-miterlimit:10;}
	.st2{fill:none;stroke:#000000;stroke-width:1.8;stroke-linecap:round;stroke-linejoin:round;stroke-miterlimit:10;}
</style><path d="M68.7,20.1H45.6c-0.6,0-1,0.4-1,1v5.4c0,0,0,0,0,0c0,0,0,0,0,0l3.2,50.1c0.1,1.2,0.8,2.3,1.8,2.9v5.1c0,2,1.6,3.6,3.6,3.6  H61c2,0,3.6-1.6,3.6-3.6v-5.1c1-0.6,1.7-1.6,1.8-2.9l3.2-50.1c0,0,0,0,0,0c0,0,0,0,0,0v-5.4C69.7,20.5,69.2,20.1,68.7,20.1z   M46.6,22.1h21.1v3.4H46.6V22.1z M61,86.2h-7.8c-0.9,0-1.6-0.7-1.6-1.6v-4.7h11v4.7C62.6,85.5,61.9,86.2,61,86.2z M64.4,76.5  c-0.1,0.8-0.7,1.5-1.6,1.5H51.4c-0.8,0-1.5-0.6-1.6-1.5l-3.2-49h20.9L64.4,76.5z"/><path d="M90.4,52.5h-2.6V37.3c0-1.7-1.4-3.2-3.2-3.2h-6.5c-1.7,0-3.2,1.4-3.2,3.2v15.2h-2.6c-0.6,0-1,0.4-1,1v33.7c0,0.6,0.4,1,1,1  h18.1c0.6,0,1-0.4,1-1V53.5C91.4,53,91,52.5,90.4,52.5z M77,37.3c0-0.6,0.5-1.2,1.2-1.2h6.5c0.6,0,1.2,0.5,1.2,1.2v15.2H77V37.3z   M89.4,86.2H73.3V54.5h7v20.4c0,0.6,0.4,1,1,1s1-0.4,1-1V54.5h7V86.2z"/><circle cx="26.6" cy="17.4" r="1.5"/><path d="M35.3,35.2v-6.3c0-1.7-1-3.2-2.5-3.8v-9.4c0-2.2-1.9-4-4.2-4h-4c-2.3,0-4.2,1.8-4.2,4v9.4c-1.4,0.6-2.5,2.1-2.5,3.7v6.3  c-3.9,0.8-6.8,4.3-6.8,8.4v37.9c0,3.6,2.9,6.6,6.6,6.6h17.8c3.6,0,6.6-3,6.6-6.6V43.6C42.1,39.5,39.2,36.1,35.3,35.2z M24.6,13.5h4  c1.3,0,2.4,1,2.4,2.2v9.1h-8.8v-9.1C22.2,14.5,23.3,13.5,24.6,13.5z M19.7,28.9c0-1.3,1-2.3,2.3-2.3h9.2c1.3,0,2.3,1,2.3,2.3V35  c0,0,0,0,0,0H19.8c0,0,0,0,0,0V28.9z M40.3,81.5c0,2.6-2.1,4.8-4.8,4.8H17.7c-2.6,0-4.8-2.1-4.8-4.8V43.6c0-3.8,3.1-6.8,6.8-6.8  h13.7c3.8,0,6.8,3.1,6.8,6.8V81.5z"/><path d="M26.6,47.2c-6,0-10.9,6.4-10.9,14.4s4.9,14.4,10.9,14.4s10.9-6.4,10.9-14.4S32.6,47.2,26.6,47.2z M26.6,74.1  c-5,0-9.1-5.6-9.1-12.6S21.6,49,26.6,49c5,0,9.1,5.6,9.1,12.6S31.6,74.1,26.6,74.1z"/></svg>
