<?xml version="1.0" encoding="utf-8"?>
<!-- Generator: Adobe Illustrator 16.0.4, SVG Export Plug-In . SVG Version: 6.00 Build 0)  -->
<!DOCTYPE svg PUBLIC "-//W3C//DTD SVG 1.1//EN" "http://www.w3.org/Graphics/SVG/1.1/DTD/svg11.dtd">
<svg version="1.1" id="Layer_1" xmlns="http://www.w3.org/2000/svg" xmlns:xlink="http://www.w3.org/1999/xlink" x="0px" y="0px"
	 width="128px" height="128px" viewBox="0 0 128 128" enable-background="new 0 0 128 128" xml:space="preserve">
<g>
	<g>
		<circle fill="#EA502F" cx="64" cy="64" r="64"/>
	</g>
	<g>
		<path fill="#FFFFFF" d="M88.48,47.234V32.078c0-1.65-1.35-3-3-3H45.191c-1.65,0-3,1.35-3,3v15.156H88.48z"/>
	</g>
	<path fill="#633D50" d="M98.93,68.005v-21.05c0-1.65-1.351-3-3-3H29c-0.245,0-0.449,0.022-0.632,0.055h-4.103c-1.657,0-3,1.343-3,3
		s1.343,3,3,3l5.155,0c0.866,0.091,3.482,2.727,4.621,7.426l5.954,24.561c0.853,3.518,3.097,6.628,6.027,8.806
		c-0.875,1.135-1.401,2.553-1.401,4.097c0,3.713,3.01,6.722,6.722,6.722c3.711,0,6.722-3.009,6.722-6.722
		c0-0.303-0.027-0.599-0.066-0.891h27.463c-0.038,0.292-0.065,0.588-0.065,0.891c0,3.713,3.01,6.722,6.721,6.722
		c3.713,0,6.723-3.009,6.723-6.722c0-3.54-2.737-6.433-6.21-6.696c-0.324-0.119-0.67-0.194-1.036-0.194H55.267
		c-3.344,0-6.805-2.219-8.528-5.191L96.01,71.675C97.62,71.305,98.93,69.654,98.93,68.005z M55.96,71.175c0,1.66-1.35,3-3,3
		c-1.66,0-3-1.34-3-3v-17.65c0-1.65,1.34-3,3-3c1.65,0,3,1.35,3,3V71.175z M71.78,67.015c0,1.65-1.34,3-3,3c-1.65,0-3-1.35-3-3
		v-13.49c0-1.65,1.35-3,3-3c1.66,0,3,1.35,3,3V67.015z M87.61,63.345c0,1.66-1.34,3-3,3c-1.65,0-3-1.34-3-3v-9.82c0-1.65,1.35-3,3-3
		c1.66,0,3,1.35,3,3V63.345z"/>
</g>
</svg>
