<svg xmlns="http://www.w3.org/2000/svg" data-name="Layer 1" viewBox="0 0 100 125" x="0px" y="0px"><title>46 all</title><path d="M81,9H19a1,1,0,0,0-1,1V90a1,1,0,0,0,1,1H81a1,1,0,0,0,1-1V10A1,1,0,0,0,81,9ZM80,89H20V11H80Z"/><rect x="28.75" y="23" width="42.5" height="2"/><rect x="28.75" y="37" width="42.5" height="2"/><rect x="28.75" y="51" width="12.5" height="2"/><path d="M62.38,51.08A7.66,7.66,0,0,0,61,66.28L56.66,77.93l1.88.7,3.73-10,2.19,7.49,1.92-.56-2.7-9.23a7.66,7.66,0,0,0-1.3-15.21Zm0,13.33A5.67,5.67,0,1,1,68,58.75,5.67,5.67,0,0,1,62.38,64.42Z"/></svg>
