<svg xmlns="http://www.w3.org/2000/svg" xmlns:xlink="http://www.w3.org/1999/xlink" version="1.1" x="0px" y="0px" viewBox="0 0 100 125" style="enable-background:new 0 0 100 100;" xml:space="preserve"><style type="text/css">
	.st0{fill:none;stroke:#000000;stroke-width:2;stroke-linecap:round;stroke-linejoin:round;stroke-miterlimit:10;}
	.st1{stroke:#000000;stroke-width:2;stroke-linecap:round;stroke-linejoin:round;stroke-miterlimit:10;}
</style><path d="M34.1,25.2C34.1,25.2,34.1,25.2,34.1,25.2l0-5.4c0-0.6-0.4-1-1-1H10.1c-0.6,0-1,0.4-1,1v5.4c0,0,0,0,0,0c0,0,0,0,0,0  l3.2,50.1c0.1,1.2,0.8,2.3,1.8,2.9v5.1c0,2,1.6,3.6,3.6,3.6h7.8c2,0,3.6-1.6,3.6-3.6v-5.1c1-0.6,1.7-1.6,1.8-2.9L34.1,25.2  C34.1,25.3,34.1,25.3,34.1,25.2z M27.1,83.3c0,0.9-0.7,1.6-1.6,1.6h-7.8c-0.9,0-1.6-0.7-1.6-1.6v-4.7h11V83.3z M28.9,75.2  c-0.1,0.8-0.7,1.5-1.5,1.5H15.9c-0.8,0-1.5-0.6-1.5-1.5l-3.2-49h20.9L28.9,75.2z M32.1,24.2H11.1v-3.4h21.1V24.2z"/><path d="M62.5,19.8c0-0.6-0.4-1-1-1H38.5c-0.6,0-1,0.4-1,1v5.4c0,0,0,0,0,0c0,0,0,0,0,0l3.2,50.1c0.1,1.2,0.8,2.3,1.8,2.9v5.1  c0,2,1.6,3.6,3.6,3.6h7.8c2,0,3.6-1.6,3.6-3.6v-5.1c1-0.6,1.7-1.6,1.8-2.9l3.2-50.1c0,0,0,0,0,0c0,0,0,0,0,0V19.8z M55.5,83.3  c0,0.9-0.7,1.6-1.6,1.6h-7.8c-0.9,0-1.6-0.7-1.6-1.6v-4.7h11V83.3z M57.3,75.2c-0.1,0.8-0.7,1.5-1.6,1.5H44.3  c-0.8,0-1.5-0.6-1.6-1.5l-3.2-49h20.9L57.3,75.2z M60.5,24.2H39.5v-3.4h21.1V24.2z"/><path d="M89.9,18.8H66.9c-0.6,0-1,0.4-1,1v5.4c0,0,0,0,0,0c0,0,0,0,0,0l3.2,50.1c0.1,1.2,0.8,2.3,1.8,2.9v5.1c0,2,1.6,3.6,3.6,3.6  h7.8c2,0,3.6-1.6,3.6-3.6v-5.1c1-0.6,1.7-1.6,1.8-2.9l3.2-50.1c0,0,0,0,0,0c0,0,0,0,0,0v-5.4C90.9,19.3,90.5,18.8,89.9,18.8z   M83.9,83.3c0,0.9-0.7,1.6-1.6,1.6h-7.8c-0.9,0-1.6-0.7-1.6-1.6v-4.7h11V83.3z M85.7,75.2c-0.1,0.8-0.7,1.5-1.5,1.5H72.6  c-0.8,0-1.5-0.6-1.5-1.5l-3.2-49h20.9L85.7,75.2z M88.9,24.2H67.9v-3.4h21.1V24.2z"/></svg>
