<svg xmlns="http://www.w3.org/2000/svg" xmlns:xlink="http://www.w3.org/1999/xlink" xml:space="preserve" version="1.1" style="shape-rendering:geometricPrecision;text-rendering:geometricPrecision;image-rendering:optimizeQuality;" viewBox="0 0 536 828.75" x="0px" y="0px" fill-rule="evenodd" clip-rule="evenodd"><defs><style type="text/css">

    .fil0 {fill:black}

  </style></defs><g><path class="fil0" d="M250 137l0 78c-128,0 -135,36 0,39 0,92 18,316 -49,317 -25,1 -88,-40 -129,-119l40 0 -57 -103 -55 103 37 0c44,111 124,169 230,210l0 0 1 1 0 0 1 0 1 -1 0 0c105,-41 186,-99 231,-210l35 0 -54 -103 -57 103 38 0c-40,79 -100,119 -125,119 -67,-1 -51,-225 -51,-317 134,-3 127,-38 -1,-38l1 -79c76,-22 59,-137 -19,-137 -78,0 -94,115 -18,137zm54 -67c0,47 -71,47 -71,0 0,-47 71,-47 71,0z"/></g></svg>
