<svg xmlns="http://www.w3.org/2000/svg" xmlns:xlink="http://www.w3.org/1999/xlink" version="1.1" x="0px" y="0px" viewBox="0 0 100 125" style="enable-background:new 0 0 100 100;" xml:space="preserve"><style type="text/css">
	.st0{fill:none;stroke:#000000;stroke-width:2;stroke-linecap:round;stroke-linejoin:round;stroke-miterlimit:10;}
	.st1{stroke:#000000;stroke-width:2;stroke-linecap:round;stroke-linejoin:round;stroke-miterlimit:10;}
</style><path d="M45.9,54.6h-5.3V29.7h1.5c0.6,0,1-0.4,1-1s-0.4-1-1-1h-1.5v-0.8h2.6c0.6,0,1-0.4,1-1s-0.4-1-1-1h-2.6v-0.8h2.6  c0.6,0,1-0.4,1-1s-0.4-1-1-1h-2.6v-0.8h2.6c0.6,0,1-0.4,1-1s-0.4-1-1-1h-2.6v-0.8h1.5c0.6,0,1-0.4,1-1s-0.4-1-1-1h-1.5v-0.7  c0-0.6-0.4-1-1-1s-1,0.4-1,1v0.7h-1.5c-0.6,0-1,0.4-1,1s0.4,1,1,1h1.5v0.8H36c-0.6,0-1,0.4-1,1s0.4,1,1,1h2.6v0.8H36  c-0.6,0-1,0.4-1,1s0.4,1,1,1h2.6v0.8H36c-0.6,0-1,0.4-1,1s0.4,1,1,1h2.6v0.8h-1.5c-0.6,0-1,0.4-1,1s0.4,1,1,1h1.5v24.8h-5.3  c-0.6,0-1,0.4-1,1v32.7c0,0.6,0.4,1,1,1h12.6c0.6,0,1-0.4,1-1V55.6C46.9,55,46.4,54.6,45.9,54.6z M44.9,87.3H34.3V56.6h10.6V87.3z"/><path d="M66.7,13.3H54.1c-0.6,0-1,0.4-1,1v74c0,0.6,0.4,1,1,1h12.6c0.6,0,1-0.4,1-1v-74C67.7,13.7,67.3,13.3,66.7,13.3z M65.7,87.3  H55.1V57.1h10.6V87.3z M65.7,55.1H55.1V15.3h10.6V55.1z"/></svg>
