<svg xmlns="http://www.w3.org/2000/svg" xmlns:xlink="http://www.w3.org/1999/xlink" version="1.1" x="0px" y="0px" viewBox="0 0 100 125" style="enable-background:new 0 0 100 100;" xml:space="preserve"><style type="text/css">
	.st0{fill:none;stroke:#000000;stroke-width:2;stroke-linecap:round;stroke-linejoin:round;stroke-miterlimit:10;}
	.st1{stroke:#000000;stroke-width:2;stroke-linecap:round;stroke-linejoin:round;stroke-miterlimit:10;}
	.st2{fill:none;stroke:#000000;stroke-width:1.8;stroke-linecap:round;stroke-linejoin:round;stroke-miterlimit:10;}
</style><path d="M73.1,87.6v-28c0-0.6-0.4-1-1-1h-1.4V28.2c0-0.6-0.4-1-1-1h-1v-6.9c0-2.2-1.3-4.2-3.4-5.1l-3.4-1.4  c-1.1-0.5-2.4-0.3-3.4,0.4c-1,0.7-1.6,1.8-1.6,3v10h-1c-0.6,0-1,0.4-1,1v30.4h-1.4c-0.6,0-1,0.4-1,1v28c0,0.6,0.4,1,1,1h18.8  C72.7,88.6,73.1,88.2,73.1,87.6z M66.7,27.2h-7.8v-10c0-0.6,0.3-1,0.7-1.4c0.5-0.3,1-0.4,1.5-0.2l3.4,1.4c1.3,0.5,2.2,1.8,2.2,3.2  V27.2z M68.7,58.6H56.8V29.2h11.9V58.6z M71.1,86.6H54.4v-26h16.8V86.6z"/><path d="M46.8,87.6V12.2c0-0.6-0.4-1-1-1H27c-0.6,0-1,0.4-1,1v75.4c0,0.6,0.4,1,1,1h18.8C46.4,88.6,46.8,88.2,46.8,87.6z M44.8,58.6  H28V13.2h16.8V58.6z M44.8,86.6H28v-26h16.8V86.6z"/></svg>
