<svg xmlns="http://www.w3.org/2000/svg" xmlns:xlink="http://www.w3.org/1999/xlink" version="1.1" x="0px" y="0px" viewBox="0 0 100 125" style="enable-background:new 0 0 100 100;" xml:space="preserve"><style type="text/css">
	.st0{fill:none;stroke:#000000;stroke-width:2;stroke-linecap:round;stroke-linejoin:round;stroke-miterlimit:10;}
	.st1{stroke:#000000;stroke-width:2;stroke-linecap:round;stroke-linejoin:round;stroke-miterlimit:10;}
	.st2{fill:none;stroke:#000000;stroke-width:1.8;stroke-linecap:round;stroke-linejoin:round;stroke-miterlimit:10;}
</style><path d="M87.6,87.9c0.6,0,1-0.4,1-1V45.8c0-0.6-0.4-1-1-1h-7.4v-1.9h2.6c0.6,0,1-0.4,1-1V30c0-0.6-0.4-1-1-1h-22c-0.6,0-1,0.4-1,1  v11.9c0,0.6,0.4,1,1,1h2.6v1.9h-7.4c-0.6,0-1,0.4-1,1v41.1c0,0.6,0.4,1,1,1H87.6z M61.9,40.9V31h20v9.9H61.9z M78.2,42.9v1.9H65.5  v-1.9H78.2z M86.6,52.5c-3.5,0.1-5.4,0.5-7.2,0.9c-1.9,0.5-3.8,0.9-7.5,0.9s-5.6-0.4-7.5-0.9c-1.8-0.4-3.7-0.9-7.2-0.9v-5.7h29.5  V52.5z M86.6,85.9H57.1V54.5c3.2,0.1,5,0.5,6.8,0.9c2,0.5,4,1,8,1s6-0.5,8-1c1.8-0.4,3.5-0.8,6.8-0.9V85.9z"/><path d="M50.3,86.9V31.5c0-0.6-0.4-1-1-1h-8.9v-2.6h3.3c0.6,0,1-0.4,1-1v-14c0-0.6-0.4-1-1-1H17.9c-0.6,0-1,0.4-1,1v14  c0,0.6,0.4,1,1,1h3.3v2.6h-8.9c-0.6,0-1,0.4-1,1v55.4c0,0.6,0.4,1,1,1h37C49.9,87.9,50.3,87.5,50.3,86.9z M18.9,25.9v-12h23.8v12  H18.9z M38.5,27.9v2.6H23.2v-2.6H38.5z M48.3,40.2c-4.2,0-6.5,0.6-8.7,1.1c-2.3,0.5-4.4,1.1-8.8,1.1s-6.6-0.5-8.8-1.1  c-2.2-0.5-4.5-1.1-8.7-1.1v-7.7h35V40.2z M48.3,85.9h-35V42.2c4,0,6.1,0.5,8.2,1.1c2.3,0.5,4.6,1.1,9.3,1.1c4.6,0,7-0.6,9.3-1.1  c2.2-0.5,4.2-1,8.2-1.1V85.9z"/></svg>
