<svg xmlns="http://www.w3.org/2000/svg" xmlns:xlink="http://www.w3.org/1999/xlink" version="1.1" x="0px" y="0px" viewBox="0 0 100 125" style="enable-background:new 0 0 100 100;" xml:space="preserve"><g><path d="M93.545,45.869c2.211-0.828,4.312-1.741,6.455-2.759c-0.496-4.173-1.704-8.236-3.229-12.142   c-2.311,0.166-4.693,0.47-6.998,0.841c-1.153-2.518-2.541-4.916-4.141-7.166c1.462-1.804,2.867-3.683,4.208-5.632   c-2.554-3.32-5.535-6.303-8.854-8.855c-1.945,1.341-3.824,2.742-5.621,4.202c-2.234-1.592-4.631-2.989-7.176-4.149   c0.371-2.301,0.678-4.677,0.841-6.982C65.123,1.705,61.057,0.497,56.891,0c-1.018,2.144-1.934,4.245-2.766,6.464   c-2.789-0.267-5.55-0.264-8.257-0.009C45.037,4.24,44.125,2.141,43.106,0c-4.165,0.497-8.233,1.705-12.141,3.223   c0.167,2.313,0.471,4.696,0.843,7.005c-2.517,1.153-4.915,2.539-7.164,4.14c-1.803-1.462-3.683-2.866-5.634-4.21   c-3.319,2.552-6.299,5.535-8.856,8.855c1.34,1.946,2.744,3.823,4.204,5.624c-1.592,2.232-2.987,4.629-4.148,7.172   c-2.303-0.37-4.68-0.673-6.986-0.839C1.704,34.875,0.492,38.938,0,43.11c2.145,1.02,4.243,1.934,6.465,2.763   c-0.268,2.79-0.265,5.551-0.009,8.259C4.238,54.961,2.142,55.871,0,56.891c0.492,4.17,1.704,8.234,3.225,12.143   c2.311-0.166,4.693-0.473,7.001-0.846c1.154,2.518,2.541,4.918,4.142,7.168c-1.463,1.801-2.87,3.678-4.212,5.634   c2.557,3.317,5.537,6.298,8.856,8.856c1.947-1.344,3.823-2.744,5.623-4.207c2.233,1.593,4.629,2.989,7.173,4.15   c-0.372,2.3-0.675,4.677-0.841,6.989c3.907,1.516,7.976,2.729,12.141,3.222c1.02-2.146,1.934-4.248,2.766-6.465   c2.789,0.268,5.55,0.265,8.257,0.01c0.83,2.213,1.745,4.313,2.762,6.455c4.166-0.493,8.232-1.706,12.14-3.222   c-0.164-2.316-0.472-4.698-0.843-7.004c2.518-1.153,4.919-2.541,7.17-4.143c1.799,1.464,3.682,2.868,5.629,4.214   c3.319-2.559,6.301-5.539,8.854-8.856c-1.338-1.952-2.741-3.826-4.201-5.623c1.593-2.233,2.989-4.631,4.15-7.176   c2.3,0.376,4.676,0.677,6.981,0.843c1.524-3.908,2.732-7.973,3.229-12.143c-2.146-1.021-4.25-1.932-6.465-2.762   C93.803,51.338,93.8,48.577,93.545,45.869z M50,79.68c-16.393,0-29.68-13.288-29.68-29.68c0-16.393,13.288-29.68,29.68-29.68   S79.68,33.607,79.68,50C79.68,66.392,66.393,79.68,50,79.68z"/></g></svg>
