<svg xmlns="http://www.w3.org/2000/svg" xmlns:xlink="http://www.w3.org/1999/xlink" version="1.1" x="0px" y="0px" viewBox="0 0 100 125" style="enable-background:new 0 0 100 100;" xml:space="preserve"><style type="text/css">
	.st0{fill:none;stroke:#000000;stroke-width:2;stroke-linecap:round;stroke-linejoin:round;stroke-miterlimit:10;}
	.st1{stroke:#000000;stroke-width:2;stroke-linecap:round;stroke-linejoin:round;stroke-miterlimit:10;}
</style><path d="M43.8,88.9c0.6,0,1-0.4,1-1V46.8c0-0.6-0.4-1-1-1h-7.4v-1.9h2.6c0.6,0,1-0.4,1-1V31c0-0.6-0.4-1-1-1h-22c-0.6,0-1,0.4-1,1  v11.9c0,0.6,0.4,1,1,1h2.6v1.9h-7.4c-0.6,0-1,0.4-1,1v41.1c0,0.6,0.4,1,1,1H43.8z M18.1,41.9V32h20v9.9H18.1z M34.4,43.9v1.9H21.7  v-1.9H34.4z M13.3,47.8h29.5v5.7c-3.5,0.1-5.4,0.5-7.2,0.9c-1.9,0.5-3.8,0.9-7.5,0.9s-5.6-0.4-7.5-0.9c-1.8-0.4-3.7-0.9-7.2-0.9  V47.8z M13.3,55.5c3.2,0.1,5,0.5,6.8,0.9c2,0.5,4,1,8,1s6-0.5,8-1c1.8-0.4,3.5-0.8,6.8-0.9v31.4H13.3V55.5z"/><path d="M50.6,88.9h37c0.6,0,1-0.4,1-1V32.5c0-0.6-0.4-1-1-1h-8.9v-2.6H82c0.6,0,1-0.4,1-1v-14c0-0.6-0.4-1-1-1H56.2  c-0.6,0-1,0.4-1,1v14c0,0.6,0.4,1,1,1h3.3v2.6h-8.9c-0.6,0-1,0.4-1,1v55.4C49.6,88.5,50.1,88.9,50.6,88.9z M57.2,26.9v-12H81v12  H57.2z M76.8,28.9v2.6H61.5v-2.6H76.8z M51.6,33.5h35v7.7c-4.2,0-6.5,0.6-8.7,1.1c-2.3,0.5-4.4,1.1-8.8,1.1s-6.6-0.5-8.8-1.1  c-2.2-0.5-4.5-1.1-8.7-1.1V33.5z M51.6,43.2c4,0,6.1,0.5,8.2,1.1c2.3,0.5,4.6,1.1,9.3,1.1c4.6,0,7-0.6,9.3-1.1  c2.2-0.5,4.2-1,8.2-1.1v43.7h-35V43.2z"/></svg>
