<svg xmlns="http://www.w3.org/2000/svg" xmlns:xlink="http://www.w3.org/1999/xlink" version="1.1" x="0px" y="0px" viewBox="0 0 100 125" style="enable-background:new 0 0 100 100;" xml:space="preserve"><style type="text/css">
	.st0{fill:none;stroke:#000000;stroke-width:2;stroke-linecap:round;stroke-linejoin:round;stroke-miterlimit:10;}
	.st1{stroke:#000000;stroke-width:2;stroke-linecap:round;stroke-linejoin:round;stroke-miterlimit:10;}
	.st2{fill:none;stroke:#000000;stroke-width:1.8;stroke-linecap:round;stroke-linejoin:round;stroke-miterlimit:10;}
</style><path d="M52.2,18.9C52.2,18.9,52.2,18.9,52.2,18.9C52.2,18.9,52.2,18.9,52.2,18.9l3.7,56.6c0.1,1.4,0.9,2.5,2,3.1v5.9  c0,2.2,1.8,3.9,3.9,3.9h8.8c2.2,0,3.9-1.8,3.9-3.9v-5.9c1.1-0.6,1.9-1.8,2-3.1l3.7-56.6c0,0,0,0,0,0c0,0,0,0,0,0v-6.1  c0-0.6-0.4-1-1-1H53.2c-0.6,0-1,0.4-1,1V18.9z M58.9,17.9h-1.2v-4.1h1.2V17.9z M62.1,17.9h-1.2v-4.1h1.2V17.9z M65.3,17.9h-1.2v-4.1  h1.2V17.9z M68.5,17.9h-1.2v-4.1h1.2V17.9z M71.7,17.9h-1.2v-4.1h1.2V17.9z M74.9,17.9h-1.2v-4.1h1.2V17.9z M78.3,17.9h-1.3v-4.1  h1.3V17.9z M59.9,79.1h12.7v5.4c0,1.1-0.9,1.9-1.9,1.9h-8.8c-1.1,0-1.9-0.9-1.9-1.9V79.1z M54.3,19.9h23.9l-3.6,55.5  c-0.1,1-0.9,1.8-1.9,1.8h-13c-1,0-1.8-0.8-1.9-1.8L54.3,19.9z M54.2,13.8h1.4v4.1h-1.4V13.8z"/><path d="M19.7,18.9C19.7,18.9,19.7,18.9,19.7,18.9C19.7,18.9,19.7,18.9,19.7,18.9l3.7,56.6c0.1,1.4,0.9,2.5,2,3.1v5.9  c0,2.2,1.8,3.9,3.9,3.9h8.8c2.2,0,3.9-1.8,3.9-3.9v-5.9c1.1-0.6,1.9-1.8,2-3.1l3.7-56.6c0,0,0,0,0,0c0,0,0,0,0,0v-6.1  c0-0.6-0.4-1-1-1H20.7c-0.6,0-1,0.4-1,1V18.9z M26.3,17.9h-1.2v-4.1h1.2V17.9z M29.5,17.9h-1.2v-4.1h1.2V17.9z M32.7,17.9h-1.2v-4.1  h1.2V17.9z M36,17.9h-1.2v-4.1H36V17.9z M39.2,17.9H38v-4.1h1.2V17.9z M42.4,17.9h-1.2v-4.1h1.2V17.9z M45.7,17.9h-1.3v-4.1h1.3  V17.9z M27.4,79.1H40v5.4c0,1.1-0.9,1.9-1.9,1.9h-8.8c-1.1,0-1.9-0.9-1.9-1.9V79.1z M21.7,19.9h23.9l-3.6,55.5  c-0.1,1-0.9,1.8-1.9,1.8h-13c-1,0-1.8-0.8-1.9-1.8L21.7,19.9z M21.7,13.8h1.4v4.1h-1.4V13.8z"/></svg>
