<svg xmlns="http://www.w3.org/2000/svg" xmlns:xlink="http://www.w3.org/1999/xlink" viewBox="0 0 60 28.75" version="1.1" x="0px" y="0px"><title>023-Yacht</title><desc>Created with Sketch.</desc><g stroke="none" stroke-width="1" fill="none" fill-rule="evenodd"><g fill="#000000"><path d="M29.5859,10 L24.9999,10 L24.9999,7 L32.5859,7 L29.5859,10 Z M22.9999,10 L17.9469,10 L21.3759,7 L22.9999,7 L22.9999,10 Z M12.6239,12 L11.6179,12 L10.6179,10 L14.9099,10 L12.6239,12 Z M7.6179,12 L6.6179,10 L8.3819,10 L9.3819,12 L7.6179,12 Z M3.6179,12 L2.6179,10 L4.3819,10 L5.3819,12 L3.6179,12 Z M58.9999,21 L56.9629,21 C56.6409,16.441 54.1379,13 50.9999,13 L40.0369,13 C40.2729,9.507 41.7049,7 42.9999,7 L50.9999,7 C51.5519,7 51.9999,6.552 51.9999,6 C51.9999,5.448 51.5519,5 50.9999,5 L46.4869,5 L51.5299,1.848 C51.9989,1.555 52.1409,0.938 51.8479,0.47 C51.5559,0.002 50.9379,-0.14 50.4699,0.152 L42.7129,5 L20.9999,5 C20.9489,5 20.9059,5.022 20.8569,5.029 C20.7869,5.039 20.7179,5.045 20.6509,5.071 C20.5829,5.096 20.5259,5.137 20.4659,5.176 C20.4249,5.203 20.3789,5.215 20.3409,5.248 L17.1589,8.032 C17.1049,8.023 17.0559,8 16.9999,8 L0.9999,8 C0.9899,8 0.9819,8.005 0.9709,8.006 C0.9029,8.008 0.8379,8.03 0.7699,8.046 C0.7059,8.062 0.6419,8.07 0.5829,8.097 C0.5729,8.102 0.5629,8.101 0.5529,8.105 C0.5069,8.128 0.4779,8.167 0.4369,8.196 C0.3789,8.237 0.3189,8.273 0.2709,8.325 C0.2259,8.374 0.1969,8.43 0.1629,8.486 C0.1299,8.539 0.0939,8.589 0.0709,8.649 C0.0449,8.717 0.0389,8.789 0.0279,8.861 C0.0209,8.909 -0.0001,8.951 -0.0001,9 C-0.0001,9.011 0.0059,9.019 0.0059,9.03 C0.0079,9.097 0.0299,9.161 0.0459,9.227 C0.0619,9.292 0.0699,9.358 0.0969,9.417 C0.1019,9.427 0.1009,9.437 0.1059,9.447 L1.3819,12 L0.9999,12 C0.9819,12 0.9669,12.009 0.9499,12.01 C0.8819,12.014 0.8189,12.033 0.7529,12.05 C0.6909,12.066 0.6299,12.077 0.5739,12.104 C0.5209,12.129 0.4769,12.167 0.4279,12.202 C0.3699,12.244 0.3119,12.283 0.2639,12.336 C0.2529,12.348 0.2369,12.354 0.2259,12.367 C0.1969,12.402 0.1879,12.446 0.1639,12.484 C0.1269,12.543 0.0909,12.6 0.0669,12.667 C0.0439,12.734 0.0359,12.8 0.0259,12.869 C0.0199,12.914 -0.0001,12.954 -0.0001,13 C-0.0001,13.017 0.0089,13.031 0.0099,13.049 C0.0129,13.119 0.0329,13.184 0.0509,13.253 C0.0669,13.312 0.0769,13.371 0.1029,13.425 C0.1289,13.479 0.1679,13.525 0.2039,13.574 C0.2449,13.632 0.2829,13.689 0.3359,13.736 C0.3479,13.747 0.3539,13.763 0.3669,13.774 L11.3669,22.774 C11.4129,22.812 11.4679,22.831 11.5189,22.859 C11.5589,22.882 11.5949,22.91 11.6399,22.927 C11.7559,22.973 11.8769,23 11.9999,23 L11.9999,23 L11.9999,23 L58.9999,23 C59.5519,23 59.9999,22.552 59.9999,22 C59.9999,21.448 59.5519,21 58.9999,21 L58.9999,21 Z"/></g></g></svg>
